<svg id="Capa_1" enable-background="new 0 0 511.984 511.984" height="512" viewBox="0 0 511.984 511.984" width="512" xmlns="http://www.w3.org/2000/svg"><g><path d="m304.445 436.984h-25.001v-14.632c58.271-18.997 100.501-73.84 100.501-138.368v-4.309-33.191h-15v24.65c-22.696-12.751-54.781-31.95-70.142-68.496l-4.325-10.29-7.893 7.894c-23.991 23.992-45.928 34.16-80.941 37.518l1.432 14.932c34.705-3.328 58.675-13.22 82.461-34.575 19.234 36.55 52.569 55.197 75.225 67.869 1.416.792 2.792 1.562 4.112 2.308-2.279 69.973-59.912 126.191-130.43 126.191-71.088 0-129.083-57.14-130.475-127.901l26.043-32.553c21.974.271 41.022.482 57.728-.283l-.688-14.984c-16.699.767-36.098.524-58.56.248l-5.618-.07-33.931 42.413v2.631c0 38.711 15.177 75.207 42.735 102.765 16.524 16.524 36.264 28.591 57.766 35.609v14.626h-25c-33.364 0-52.5 24.603-52.5 67.5v7.5h52.5v-15h-37.274c1.371-22.021 9.467-45 37.274-45h25.755c3.484 17.096 18.635 30 36.745 30h15c18.109 0 33.261-12.904 36.745-30h25.756c27.807 0 35.903 22.979 37.274 45h-162.275v15h177.501v-7.5c0-42.9-19.136-67.502-52.5-67.502zm-62.501 30h-15c-12.406 0-22.5-10.094-22.5-22.5v-18.117c9.765 2.054 19.804 3.117 30 3.117 10.282 0 20.315-1.079 30-3.117v18.117c0 12.406-10.093 22.5-22.5 22.5z"/><path d="m442.448 10.968c-14.621-14.623-38.41-14.625-53.033 0-8.152 8.152-11.753 19.154-10.815 29.829l-154.515 37.935 70.932 70.931 10.605-10.607-52.104-52.106 129.36-31.76c1.694 3.167 3.869 6.142 6.537 8.81 3.244 3.244 6.94 5.764 10.886 7.568l-31.965 130.198-52.106-52.105-10.605 10.607 70.931 70.93 11.886-48.415c4.311 13.271 6.542 27.21 6.504 41.178l-.376 139.359c-.088 32.982-12.354 64.705-34.536 89.325l11.145 10.041c24.659-27.369 38.293-62.644 38.392-99.325l.375-139.356c.061-22.794-5.279-45.519-15.438-65.926l20.41-83.135c.338.009.676.024 1.014.024 9.604 0 19.206-3.655 26.517-10.966 14.621-14.623 14.621-38.413-.001-53.034zm-10.607 42.427c-8.771 8.771-23.046 8.772-31.82 0-8.772-8.773-8.772-23.048 0-31.82 4.387-4.387 10.148-6.58 15.91-6.58 5.763 0 11.524 2.193 15.91 6.58 8.774 8.772 8.774 23.046 0 31.82z"/><path d="m365.036 82.761h15.013v14.999h-15.013z" transform="matrix(.238 -.971 .971 .238 196.06 430.539)"/><path d="m338.166 127.37h46.849v14.999h-46.849z" transform="matrix(.238 -.971 .971 .238 144.397 453.875)"/><path d="m274.835 349.128-9.813-11.346c-14.575 12.608-46.58 12.606-61.154.001l-9.813 11.344c10.004 8.653 25.194 12.979 40.39 12.979 15.191 0 30.388-4.327 40.39-12.978z"/><path d="m164.601 280.971c-13.785 0-25 11.215-25 25h15c0-5.514 4.486-10 10-10s10 4.486 10 10h15c0-13.785-11.215-25-25-25z"/><path d="m304.289 295.971c5.514 0 10 4.486 10 10h15c0-13.785-11.215-25-25-25s-25 11.215-25 25h15c0-5.514 4.486-10 10-10z"/><path d="m289.445 466.984h15v15h-15z"/><path d="m153.534 135.722-7.892-12.756c-18.739 11.593-33.914 28.112-43.884 47.774l13.378 6.783c8.725-17.203 22.003-31.658 38.398-41.801z"/><path d="m91.282 200.888 14.704 2.965c.917-4.545 2.154-9.073 3.679-13.459l-14.168-4.926c-1.746 5.024-3.164 10.213-4.215 15.42z"/><path d="m73.945 224.004c.198-73.702 60.15-133.663 133.643-133.663v-15c-81.742 0-148.423 66.672-148.643 148.622l-.375 139.357c-.101 37.618 14.103 73.592 39.995 101.296l10.959-10.242c-23.276-24.904-36.044-57.227-35.954-91.013z"/></g></svg>