<?xml version="1.0"?>
<svg xmlns="http://www.w3.org/2000/svg" width="512" height="512" viewBox="0 0 512 512"><g><path d="M120,424H96a8,8,0,0,0-8,8v24a8,8,0,0,0,8,8h24a8,8,0,0,0,8-8V432A8,8,0,0,0,120,424Zm-8,24h-8v-8h8Z"/><path d="M168,424H144a8,8,0,0,0,0,16h24a8,8,0,0,0,0-16Z"/><path d="M152,448h-8a8,8,0,0,0,0,16h8a8,8,0,0,0,0-16Z"/><path d="M463,472H448V40a8,8,0,0,0-8-8H168a8,8,0,0,0-8,8V328H80a16.021,16.021,0,0,0-16,16V472H16a8,8,0,0,0,0,16H463a8,8,0,0,0,0-16ZM128,344h32v41.05l-11.56-7.71a8.026,8.026,0,0,0-8.88,0L128,385.05Zm80,128H80V344h32v56a8.009,8.009,0,0,0,12.44,6.66L144,393.61l19.56,13.05A8.026,8.026,0,0,0,168,408a8.015,8.015,0,0,0,8-8V344h32l.01,128Zm200,0H224V344a16.021,16.021,0,0,0-16-16h-8V72H408Zm24,0h-8V64a8,8,0,0,0-8-8H192a8,8,0,0,0-8,8V328h-8V48H432Z"/><path d="M496,472h-8a8,8,0,0,0,0,16h8a8,8,0,0,0,0-16Z"/><path d="M336,272h17.376a24,24,0,1,0,0-16H336a8,8,0,0,0,0,16Zm40-16a8,8,0,1,1-8,8A8.009,8.009,0,0,1,376,256Z"/></g></svg>
