<svg id="Capa_1" enable-background="new 0 0 512 512" height="512" viewBox="0 0 512 512" width="512" xmlns="http://www.w3.org/2000/svg"><path d="m0 134v-48c0-11.046 8.954-20 20-20s20 8.954 20 20v32.538c19.679-30.894 45.815-57.317 76.844-77.447 41.438-26.882 89.557-41.091 139.156-41.091 68.38 0 132.667 26.628 181.019 74.98s74.981 112.641 74.981 181.02c0 11.046-8.954 20-20 20s-20-8.954-20-20c0-119.103-96.897-216-216-216-75.665 0-145.871 40.156-184.727 104h26.727c11.046 0 20 8.954 20 20s-8.954 20-20 20h-48c-27.57 0-50-22.429-50-50zm462 194h-49c-11.045 0-20 8.955-20 20s8.954 20 20 20h26.727c-38.855 63.844-109.061 104-184.727 104-118.551 0-215-96.897-215-216 0-11.046-8.954-20-20-20s-20 8.954-20 20c0 68.419 26.437 132.692 74.439 180.978 48.096 48.378 112.22 75.022 180.561 75.022 49.6 0 97.719-14.209 139.156-41.091 31.555-20.47 58.055-47.443 77.844-79.013v33.104c0 11.046 8.954 20 20 20s20-8.954 20-20v-47c0-27.57-22.43-50-50-50zm-263 50c-.015 3.146 2.714 5.014 6.211 5 2.456-.01 5.05-.995 6.761-2.699l107.412-125.52c8.197-9.476 1.579-24.781-11.001-24.781h-46.317l52.921-85h-70.987l-62.408 108.658c-7.528 13.423 2.246 30.342 17.72 30.342h40.177l-39.875 91.491c-.42.915-.61 1.753-.614 2.509z"/></svg>