<svg viewBox="0 0 512 512" xmlns="http://www.w3.org/2000/svg"><path d="m46 255.996094c0 115.796875 94.207031 210 210 210s210-94.203125 210-210c0-115.792969-94.207031-210-210-210s-210 94.207031-210 210zm400 0c0 104.769531-85.234375 190-190 190s-190-85.230469-190-190c0-104.765625 85.234375-190 190-190s190 85.234375 190 190zm0 0"/><path d="m453.78125 93.449219c-37.027344-45.007813-88.671875-76.292969-145.414062-88.089844-5.394532-1.117187-10.703126 2.347656-11.828126 7.757813-1.125 5.40625 2.351563 10.699218 7.757813 11.824218 108.761719 22.613282 187.703125 119.785156 187.703125 231.054688 0 130.132812-105.867188 236-236 236s-236-105.867188-236-236c0-114.28125 81.488281-211.949219 193.765625-232.230469 5.433594-.980469 9.042969-6.183594 8.0625-11.617187-.984375-5.433594-6.183594-9.046876-11.617187-8.0625-58.277344 10.523437-111.523438 41.382812-149.933594 86.890624-38.871094 46.058594-60.277344 104.664063-60.277344 165.019532 0 68.382812 26.628906 132.667968 74.980469 181.023437 48.351562 48.351563 112.640625 74.976563 181.019531 74.976563s132.667969-26.628906 181.019531-74.976563c48.351563-48.355469 74.980469-112.640625 74.980469-181.023437 0-59.1875-20.675781-116.917969-58.21875-162.546875zm0 0"/><path d="m257.214844 20 .703125.003906h.085937c5.480469 0 9.949219-4.421875 9.996094-9.914062.046875-5.523438-4.394531-10.0390628-9.914062-10.08593775l-.703126-.00390625c-.03125 0-.058593 0-.085937 0-5.484375 0-9.953125 4.421875-10 9.917969-.042969 5.523437 4.394531 10.035156 9.917969 10.082031zm0 0"/><path d="m246.128906 95.667969c0 2.628906 1.070313 5.199219 2.929688 7.070312 1.871094 1.859375 4.441406 2.929688 7.070312 2.929688 2.640625 0 5.210938-1.070313 7.070313-2.929688 1.871093-1.871093 2.941406-4.441406 2.941406-7.070312 0-2.632813-1.070313-5.210938-2.941406-7.070313-1.851563-1.859375-4.429688-2.929687-7.070313-2.929687-2.628906 0-5.207031 1.058593-7.070312 2.929687-1.859375 1.859375-2.929688 4.429688-2.929688 7.070313zm0 0"/><path d="m255.871094 406.328125c-2.640625 0-5.222656 1.070313-7.070313 2.929687-1.871093 1.859376-2.929687 4.441407-2.929687 7.070313 0 2.640625 1.058594 5.210937 2.929687 7.070313 1.859375 1.867187 4.429688 2.929687 7.070313 2.929687 2.628906 0 5.199218-1.0625 7.066406-2.929687 1.863281-1.859376 2.933594-4.441407 2.933594-7.070313s-1.070313-5.199219-2.933594-7.070313c-1.859375-1.859374-4.4375-2.929687-7.066406-2.929687zm0 0"/><path d="m416.328125 266.128906c2.632813 0 5.210937-1.0625 7.070313-2.921875 1.871093-1.871093 2.929687-4.441406 2.929687-7.078125 0-2.632812-1.058594-5.210937-2.929687-7.070312-1.859376-1.859375-4.429688-2.921875-7.070313-2.921875-2.628906 0-5.207031 1.0625-7.066406 2.921875-1.863281 1.867187-2.933594 4.4375-2.933594 7.070312 0 2.628906 1.070313 5.207032 2.933594 7.078125 1.867187 1.859375 4.4375 2.921875 7.066406 2.921875zm0 0"/><path d="m95.671875 245.867188c-2.644531 0-5.210937 1.0625-7.070313 2.921874-1.871093 1.859376-2.929687 4.4375-2.929687 7.078126 0 2.628906 1.058594 5.210937 2.929687 7.070312 1.859376 1.859375 4.429688 2.929688 7.070313 2.929688 2.628906 0 5.207031-1.070313 7.066406-2.929688s2.933594-4.441406 2.933594-7.070312c0-2.640626-1.070313-5.21875-2.933594-7.078126-1.859375-1.863281-4.4375-2.921874-7.066406-2.921874zm0 0"/><path d="m175.949219 107.078125c-2.628907 0-5.210938 1.070313-7.070313 2.929687-1.859375 1.859376-2.929687 4.441407-2.929687 7.070313s1.070312 5.210937 2.929687 7.070313c1.859375 1.859374 4.441406 2.929687 7.070313 2.929687 2.628906 0 5.210937-1.070313 7.070312-2.929687 1.859375-1.859376 2.929688-4.441407 2.929688-7.070313s-1.070313-5.210937-2.929688-7.070313c-1.859375-1.859374-4.441406-2.929687-7.070312-2.929687zm0 0"/><path d="m336.050781 384.917969c-2.628906 0-5.210937 1.070312-7.070312 2.929687s-2.929688 4.4375-2.929688 7.070313c0 2.628906 1.070313 5.210937 2.929688 7.070312s4.441406 2.929688 7.070312 2.929688c2.628907 0 5.210938-1.070313 7.070313-2.929688s2.929687-4.441406 2.929687-7.070312c0-2.632813-1.070312-5.210938-2.929687-7.070313s-4.441406-2.929687-7.070313-2.929687zm0 0"/><path d="m394.921875 185.949219c2.628906 0 5.207031-1.070313 7.066406-2.933594 1.859375-1.859375 2.933594-4.4375 2.933594-7.066406 0-2.632813-1.070313-5.210938-2.933594-7.070313-1.859375-1.859375-4.4375-2.929687-7.066406-2.929687-2.632813 0-5.210937 1.066406-7.070313 2.929687-1.859374 1.859375-2.929687 4.4375-2.929687 7.070313 0 2.628906 1.066406 5.207031 2.929687 7.066406 1.859376 1.863281 4.4375 2.933594 7.070313 2.933594zm0 0"/><path d="m117.078125 326.046875c-2.628906 0-5.207031 1.070313-7.066406 2.929687-1.863281 1.859376-2.933594 4.441407-2.933594 7.070313s1.070313 5.210937 2.933594 7.070313c1.859375 1.859374 4.4375 2.929687 7.066406 2.929687 2.632813 0 5.210937-1.070313 7.070313-2.929687 1.859374-1.859376 2.929687-4.441407 2.929687-7.070313s-1.066406-5.210937-2.929687-7.070313c-1.859376-1.859374-4.429688-2.929687-7.070313-2.929687zm0 0"/><path d="m117.210938 165.71875c-2.632813 0-5.210938 1.066406-7.070313 2.929688-1.859375 1.859374-2.929687 4.429687-2.929687 7.070312 0 2.628906 1.066406 5.199219 2.929687 7.066406 1.871094 1.859375 4.4375 2.933594 7.070313 2.933594 2.640624 0 5.210937-1.070312 7.066406-2.933594 1.871094-1.867187 2.933594-4.4375 2.933594-7.066406 0-2.640625-1.0625-5.210938-2.933594-7.070312-1.855469-1.859376-4.425782-2.929688-7.066406-2.929688zm0 0"/><path d="m394.789062 346.277344c2.632813 0 5.210938-1.070313 7.070313-2.929688s2.929687-4.441406 2.929687-7.070312-1.070312-5.210938-2.929687-7.070313-4.4375-2.929687-7.070313-2.929687c-2.640624 0-5.210937 1.070312-7.070312 2.929687-1.867188 1.859375-2.929688 4.441407-2.929688 7.070313s1.0625 5.210937 2.929688 7.070312c1.851562 1.859375 4.429688 2.929688 7.070312 2.929688zm0 0"/><path d="m336.277344 127.207031c2.632812 0 5.210937-1.0625 7.070312-2.921875 1.871094-1.867187 2.929688-4.449218 2.929688-7.078125 0-2.628906-1.058594-5.210937-2.929688-7.070312-1.859375-1.859375-4.4375-2.929688-7.070312-2.929688-2.628906 0-5.207032 1.070313-7.066406 2.929688-1.859376 1.859375-2.933594 4.441406-2.933594 7.070312 0 2.628907 1.070312 5.210938 2.933594 7.078125 1.859374 1.863282 4.4375 2.921875 7.066406 2.921875zm0 0"/><path d="m175.71875 384.789062c-2.640625 0-5.207031 1.058594-7.070312 2.929688-1.859376 1.859375-2.929688 4.429688-2.929688 7.070312 0 2.628907 1.070312 5.207032 2.929688 7.066407 1.863281 1.863281 4.433593 2.933593 7.070312 2.933593 2.632812 0 5.210938-1.070312 7.070312-2.933593 1.859376-1.867188 2.929688-4.4375 2.929688-7.066407 0-2.632812-1.070312-5.210937-2.929688-7.070312-1.859374-1.871094-4.4375-2.929688-7.070312-2.929688zm0 0"/><path d="m338.324219 159.65625-64.183594 64.1875c-5.363281-3.039062-11.550781-4.78125-18.140625-4.78125-6.558594 0-12.714844 1.726562-18.058594 4.734375l-30.683594-30.683594c-3.90625-3.902343-10.234374-3.902343-14.144531 0-3.902343 3.90625-3.902343 10.238281 0 14.144531l30.683594 30.679688c-3.007813 5.34375-4.730469 11.503906-4.730469 18.058594 0 20.367187 16.566406 36.9375 36.933594 36.9375s36.933594-16.570313 36.933594-36.9375c0-6.523438-1.707032-12.652344-4.6875-17.976563l64.222656-64.21875c3.902344-3.90625 3.902344-10.238281 0-14.144531-3.90625-3.902344-10.238281-3.902344-14.144531 0zm-82.324219 113.277344c-9.339844 0-16.933594-7.597656-16.933594-16.9375 0-9.335938 7.59375-16.933594 16.933594-16.933594s16.933594 7.597656 16.933594 16.933594c0 9.339844-7.59375 16.9375-16.933594 16.9375zm0 0"/><path d="m299.574219 339.996094h-86.894531c-5.523438 0-10 4.480468-10 10 0 5.523437 4.476562 10 10 10h86.894531c5.523437 0 10-4.476563 10-10 0-5.519532-4.476563-10-10-10zm0 0"/></svg>