<?xml version="1.0" encoding="iso-8859-1"?>
<!-- Generator: Adobe Illustrator 19.0.0, SVG Export Plug-In . SVG Version: 6.00 Build 0)  -->
<svg version="1.1" id="Capa_1" xmlns="http://www.w3.org/2000/svg" xmlns:xlink="http://www.w3.org/1999/xlink" x="0px" y="0px"
	 viewBox="0 0 509.867 509.867" style="enable-background:new 0 0 509.867 509.867;" xml:space="preserve">
<g>
	<g>
		<path d="M272,6.4c-8.533-8.533-23.467-8.533-32,0C220.8,27.733,62.933,219.733,62.933,317.867c0,106.667,85.333,192,192,192
			s192-85.333,192-192C446.933,219.733,289.067,27.733,272,6.4z M254.933,467.2c-83.2,0-149.333-66.133-149.333-149.333
			c0-64,96-198.4,149.333-264.533c53.333,66.133,149.333,200.533,149.333,264.533C404.267,401.067,338.133,467.2,254.933,467.2z"/>
	</g>
</g>
<g>
	<g>
		
			<rect x="165.013" y="274.429" transform="matrix(0.7071 -0.7071 0.7071 0.7071 -134.2487 267.419)" width="181.332" height="42.666"/>
	</g>
</g>
<g>
	<g>
		<circle cx="190.933" cy="253.867" r="21.333"/>
	</g>
</g>
<g>
	<g>
		<circle cx="318.933" cy="339.2" r="21.333"/>
	</g>
</g>
<g>
</g>
<g>
</g>
<g>
</g>
<g>
</g>
<g>
</g>
<g>
</g>
<g>
</g>
<g>
</g>
<g>
</g>
<g>
</g>
<g>
</g>
<g>
</g>
<g>
</g>
<g>
</g>
<g>
</g>
</svg>
