<svg id="Layer_1_1_" enable-background="new 0 0 64 64" height="512" viewBox="0 0 64 64" width="512" xmlns="http://www.w3.org/2000/svg"><path d="m24 2h-16c-.552 0-1 .447-1 1v3.638l-4.768 5.722c-.249.299-.302.714-.138 1.064.165.351.518.576.906.576h26c.388 0 .741-.225.906-.576s.111-.766-.138-1.064l-4.768-5.722v-3.638c0-.553-.448-1-1-1zm-15 2h14v2h-14zm-3.865 8 3.333-4h15.063l3.333 4z"/><path d="m61 30h-2v-11c0-.553-.448-1-1-1h-22c-.552 0-1 .447-1 1v11h-7v-2h-2v2h-4v-2h-2v2h-6v-1h1c.552 0 1-.447 1-1v-5h1v-2h-2-10-2v2h1v5c0 .553.448 1 1 1h1v1h-3c-.552 0-1 .447-1 1v4 26c0 .553.448 1 1 1h58c.552 0 1-.447 1-1v-26-4c0-.553-.448-1-1-1zm-29 6h28v6h-28zm4-4h22 2v2h-28v-2zm21-2h-5v-10h5zm-20-10h13v10h-13zm-31 3h8v4h-8zm2 6h4v1h-4zm-4 3h26v2h-26zm0 4h26v24h-26zm28 24v-16h28v16z"/><path d="m53 22h2v2h-2z"/><path d="m53 26h2v2h-2z"/><path d="m48 21h-9c-.552 0-1 .447-1 1v6c0 .553.448 1 1 1h9c.552 0 1-.447 1-1v-6c0-.553-.448-1-1-1zm-1 6h-7v-4h7z"/><path d="m34 16h26c.552 0 1-.447 1-1v-12c0-.553-.448-1-1-1h-26c-.552 0-1 .447-1 1v12c0 .553.448 1 1 1zm7-5v3h-2v-3zm8 3h-2v-6h2zm6-4c.551 0 1 .448 1 1v3h-2v-3c0-.552.449-1 1-1zm-20-6h24v10h-1v-3c0-1.302-.839-2.402-2-2.816v-1.184h-2v1.184c-1.161.414-2 1.514-2 2.816v3h-1v-7c0-.553-.448-1-1-1h-4c-.552 0-1 .447-1 1v7h-2v-3h1v-2h-3v-2h-2v2h-3v2h1v3h-2z"/><path d="m9 9h2v2h-2z"/><path d="m13 9h2v2h-2z"/><path d="m27 42h-20c-.552 0-1 .447-1 1v14c0 .553.448 1 1 1h20c.552 0 1-.447 1-1v-14c0-.553-.448-1-1-1zm-1 14h-18v-12h18z"/><path d="m10 38h15v2h-15z"/><path d="m9.757 49h8.485v2h-8.485z" transform="matrix(.707 -.707 .707 .707 -31.255 24.544)"/><path d="m14.757 49h8.485v2h-8.485z" transform="matrix(.707 -.707 .707 .707 -29.79 28.08)"/><path d="m44 38h4v2h-4z"/><path d="m44 46h4v2h-4z"/></svg>