<?xml version="1.0" encoding="iso-8859-1"?>
<!-- Generator: Adobe Illustrator 19.0.0, SVG Export Plug-In . SVG Version: 6.00 Build 0)  -->
<svg version="1.1" id="Capa_1" xmlns="http://www.w3.org/2000/svg" xmlns:xlink="http://www.w3.org/1999/xlink" x="0px" y="0px"
	 viewBox="0 0 480 480" style="enable-background:new 0 0 480 480;" xml:space="preserve">
<g>
	<g>
		<g>
			<path d="M440,0H40C17.92,0.026,0.026,17.92,0,40v400c0.026,22.08,17.92,39.974,40,40h400c22.08-0.026,39.974-17.92,40-40V40
				C479.974,17.92,462.08,0.026,440,0z M464,440c0,13.255-10.745,24-24,24H40c-13.255,0-24-10.745-24-24V40
				c0-13.255,10.745-24,24-24h400c13.255,0,24,10.745,24,24V440z"/>
			<path d="M176,432h256V48H176V432z M192,64h64v8h16v-8h64v8h16v-8h64v352h-64v-8h-16v8h-64v-8h-16v8h-64V64z"/>
			<rect x="336" y="280" width="16" height="16"/>
			<rect x="336" y="312" width="16" height="16"/>
			<rect x="336" y="248" width="16" height="16"/>
			<rect x="336" y="88" width="16" height="16"/>
			<rect x="336" y="344" width="16" height="16"/>
			<rect x="336" y="376" width="16" height="16"/>
			<rect x="336" y="216" width="16" height="16"/>
			<rect x="336" y="120" width="16" height="16"/>
			<rect x="336" y="152" width="16" height="16"/>
			<rect x="336" y="184" width="16" height="16"/>
			<rect x="256" y="280" width="16" height="16"/>
			<rect x="256" y="248" width="16" height="16"/>
			<rect x="256" y="312" width="16" height="16"/>
			<rect x="256" y="376" width="16" height="16"/>
			<rect x="256" y="344" width="16" height="16"/>
			<rect x="256" y="120" width="16" height="16"/>
			<rect x="256" y="216" width="16" height="16"/>
			<rect x="256" y="88" width="16" height="16"/>
			<rect x="256" y="152" width="16" height="16"/>
			<rect x="256" y="184" width="16" height="16"/>
			<rect x="216" y="80" width="16" height="48"/>
			<rect x="296" y="80" width="16" height="48"/>
			<rect x="376" y="80" width="16" height="48"/>
			<path d="M96,56c-22.091,0-40,17.909-40,40s17.909,40,40,40c22.08-0.026,39.974-17.92,40-40C136,73.909,118.091,56,96,56z M96,120
				c-13.255,0-24-10.745-24-24s10.745-24,24-24s24,10.745,24,24S109.255,120,96,120z"/>
			<path d="M96,176c-22.091,0-40,17.909-40,40s17.909,40,40,40c22.08-0.026,39.974-17.92,40-40C136,193.909,118.091,176,96,176z
				 M96,240c-13.255,0-24-10.745-24-24s10.745-24,24-24s24,10.745,24,24S109.255,240,96,240z"/>
		</g>
	</g>
</g>
<g>
</g>
<g>
</g>
<g>
</g>
<g>
</g>
<g>
</g>
<g>
</g>
<g>
</g>
<g>
</g>
<g>
</g>
<g>
</g>
<g>
</g>
<g>
</g>
<g>
</g>
<g>
</g>
<g>
</g>
</svg>
