<svg height="512pt" viewBox="-38 0 512 512" width="512pt" xmlns="http://www.w3.org/2000/svg"><path d="m218 52c-91.53125 0-166 74.46875-166 166 0 31.910156 9.078125 62.902344 26.257812 89.625 16.71875 26.015625 40.269532 46.8125 68.105469 60.148438 11.320313 5.425781 18.636719 16.960937 18.636719 29.390624v14.835938h-.5c-9.648438 0-17.5 7.851562-17.5 17.5v10c0 9.648438 7.851562 17.5 17.5 17.5h2.5v12.5c0 9.648438 7.851562 17.5 17.5 17.5h4.5v7.5c0 9.648438 7.851562 17.5 17.5 17.5h23c9.648438 0 17.5-7.851562 17.5-17.5v-7.5h4.5c9.648438 0 17.5-7.851562 17.5-17.5v-12.5h2.5c9.648438 0 17.5-7.851562 17.5-17.5v-10c0-9.648438-7.851562-17.5-17.5-17.5h-.5v-14.835938c0-12.429687 7.316406-23.964843 18.636719-29.390624 27.835937-13.332032 51.386719-34.132813 68.105469-60.144532 17.179687-26.726562 26.257812-57.71875 26.257812-89.628906 0-91.53125-74.46875-166-166-166zm14 442.5c0 1.378906-1.121094 2.5-2.5 2.5h-23c-1.378906 0-2.5-1.121094-2.5-2.5v-7.5h28zm42-65v10c0 1.378906-1.121094 2.5-2.5 2.5h-62c-4.140625 0-7.5 3.359375-7.5 7.5s3.359375 7.5 7.5 7.5h44.5v12.5c0 1.378906-1.121094 2.5-2.5 2.5h-67c-1.378906 0-2.5-1.121094-2.5-2.5v-20c0-4.140625-3.359375-7.5-7.5-7.5h-10c-1.378906 0-2.5-1.121094-2.5-2.5v-10c0-1.378906 1.121094-2.5 2.5-2.5h107c1.378906 0 2.5 1.121094 2.5 2.5zm9.15625-75.253906c-16.496094 7.902344-27.15625 24.75-27.15625 42.917968v14.835938h-30.5v-30.5c0-4.140625-3.355469-7.5-7.5-7.5-4.140625 0-7.5 3.359375-7.5 7.5v30.5h-30.5v-14.835938c0-18.167968-10.660156-35.011718-27.15625-42.917968-52.148438-24.980469-85.84375-78.460938-85.84375-136.246094 0-83.261719 67.738281-151 151-151s151 67.738281 151 151c0 57.785156-33.695312 111.265625-85.84375 136.246094zm0 0"/><path d="m218 82h-.175781c-4.859375.007812-8.917969 3.507812-9.652344 8.324219-.730469 4.816406 2.101563 9.363281 6.734375 10.8125 38.039062 11.90625 63.59375 46.710937 63.59375 86.613281 0 24.207031-9.449219 46.988281-26.605469 64.144531s-39.9375 26.605469-64.144531 26.605469c-39.898438 0-74.707031-25.558594-86.613281-63.59375-1.449219-4.632812-5.996094-7.472656-10.8125-6.734375-4.816407.734375-8.316407 4.792969-8.324219 9.664063v.164062c0 74.988281 61.007812 136 136 136 36.292969 0 70.441406-14.15625 96.140625-39.859375 25.703125-25.703125 39.859375-59.847656 39.859375-96.140625 0-74.992188-61.011719-136-136-136zm85.535156 221.535156c-22.871094 22.871094-53.25 35.464844-85.535156 35.464844-56.460938 0-104.015625-38.878906-117.304688-91.265625 6.539063 9.472656 14.609376 17.90625 23.859376 24.8125 18.363281 13.707031 40.214843 20.953125 63.195312 20.953125 28.214844 0 54.765625-11.007812 74.753906-30.996094 19.988282-19.992187 30.996094-46.539062 30.996094-74.753906 0-22.980469-7.246094-44.832031-20.953125-63.195312-6.90625-9.25-15.339844-17.320313-24.8125-23.859376 52.390625 13.289063 91.265625 60.84375 91.265625 117.304688 0 32.285156-12.59375 62.664062-35.464844 85.535156zm0 0"/><path d="m153.417969 198.789062 10.917969 3.742188c6.617187 2.269531 11.714843 7.367188 13.984374 13.988281l3.742188 10.914063c1.316406 3.835937 4.925781 6.417968 8.988281 6.417968 4.058594 0 7.667969-2.582031 8.984375-6.417968l3.742188-10.914063c2.269531-6.621093 7.367187-11.71875 13.988281-13.988281l10.914063-3.742188c3.835937-1.316406 6.417968-4.929687 6.417968-8.988281 0-4.058593-2.582031-7.667969-6.417968-8.984375l-10.917969-3.742187c-6.617188-2.269531-11.714844-7.367188-13.984375-13.984375l-3.742188-10.917969c-1.316406-3.835937-4.929687-6.417969-8.988281-6.417969s-7.667969 2.582032-8.984375 6.417969l-3.742188 10.917969c-2.269531 6.617187-7.367187 11.714844-13.988281 13.984375l-10.914062 3.742187c-3.839844 1.316406-6.421875 4.925782-6.421875 8.984375.003906 4.0625 2.582031 7.671875 6.421875 8.988281zm37.632812-27.195312c3.730469 8.070312 10.136719 14.476562 18.207031 18.207031-8.070312 3.730469-14.476562 10.136719-18.207031 18.210938-3.730469-8.074219-10.136719-14.480469-18.210937-18.210938 8.074218-3.730469 14.476562-10.136719 18.210937-18.207031zm0 0"/><path d="m218 34c4.144531 0 7.5-3.359375 7.5-7.5v-19c0-4.140625-3.355469-7.5-7.5-7.5-4.140625 0-7.5 3.359375-7.5 7.5v19c0 4.140625 3.359375 7.5 7.5 7.5zm0 0"/><path d="m26.5 211.5h-19c-4.140625 0-7.5 3.359375-7.5 7.5s3.359375 7.5 7.5 7.5h19c4.140625 0 7.5-3.359375 7.5-7.5s-3.359375-7.5-7.5-7.5zm0 0"/><path d="m428.5 211.5h-19c-4.144531 0-7.5 3.359375-7.5 7.5s3.355469 7.5 7.5 7.5h19c4.144531 0 7.5-3.359375 7.5-7.5s-3.355469-7.5-7.5-7.5zm0 0"/><path d="m77.285156 88.890625c1.464844 1.464844 3.386719 2.199219 5.304688 2.199219 1.917968 0 3.839844-.734375 5.300781-2.199219 2.929687-2.925781 2.929687-7.675781 0-10.605469l-13.433594-13.433594c-2.929687-2.929687-7.679687-2.929687-10.605469 0-2.929687 2.929688-2.929687 7.675782 0 10.605469zm0 0"/><path d="m358.714844 349.109375c-2.929688-2.929687-7.679688-2.929687-10.605469 0-2.929687 2.925781-2.929687 7.675781 0 10.605469l13.433594 13.433594c1.464843 1.464843 3.382812 2.199218 5.304687 2.199218 1.917969 0 3.839844-.734375 5.300782-2.199218 2.929687-2.929688 2.929687-7.675782.003906-10.605469zm0 0"/><path d="m353.410156 91.089844c1.917969 0 3.839844-.734375 5.304688-2.199219l13.433594-13.433594c2.929687-2.929687 2.929687-7.679687 0-10.605469-2.925782-2.929687-7.675782-2.929687-10.605469 0l-13.433594 13.433594c-2.929687 2.929688-2.929687 7.679688 0 10.605469 1.460937 1.464844 3.382813 2.199219 5.300781 2.199219zm0 0"/><path d="m77.285156 349.109375-13.433594 13.433594c-2.929687 2.929687-2.929687 7.679687 0 10.605469 1.464844 1.464843 3.382813 2.199218 5.300782 2.199218 1.921875 0 3.839844-.734375 5.304687-2.199218l13.433594-13.433594c2.929687-2.929688 2.929687-7.679688 0-10.605469-2.925781-2.929687-7.675781-2.929687-10.605469 0zm0 0"/></svg>