<svg id="Capa_1" enable-background="new 0 0 512 512" height="512" viewBox="0 0 512 512" width="512" xmlns="http://www.w3.org/2000/svg"><g><path d="m15 331h116.479l177.232 117.502c4.596 3.048 10.506 3.332 15.383.714 4.869-2.613 7.906-7.691 7.906-13.216v-360c0-5.525-3.037-10.603-7.905-13.216-4.869-2.613-10.778-2.338-15.383.714l-177.233 117.502h-116.479c-8.284 0-15 6.716-15 15v120c0 8.284 6.716 15 15 15zm287 77.058-151-100.11v-103.896l151-100.11zm-272-197.058h91v90h-91z"/><path d="m442.408 139.379c-5.858 5.858-5.858 15.355 0 21.213 25.531 25.532 39.592 59.415 39.592 95.408s-14.061 69.876-39.592 95.408c-5.858 5.858-5.858 15.355 0 21.213 5.857 5.858 15.355 5.859 21.213 0 31.197-31.198 48.379-72.615 48.379-116.621s-17.182-85.423-48.379-116.621c-5.858-5.858-15.356-5.858-21.213 0z"/><path d="m400.004 330.217c5.857 5.858 15.355 5.859 21.213 0 19.851-19.85 30.783-46.208 30.783-74.217s-10.932-54.367-30.783-74.217c-5.857-5.858-15.355-5.858-21.213 0s-5.858 15.355 0 21.213c14.184 14.184 21.996 33.008 21.996 53.004s-7.812 38.82-21.996 53.004c-5.858 5.858-5.858 15.355 0 21.213z"/><path d="m357.607 287.82c5.858 5.858 15.355 5.858 21.213-.001 8.499-8.5 13.18-19.8 13.18-31.819s-4.681-23.32-13.18-31.819c-5.857-5.859-15.354-5.859-21.213-.001-5.858 5.857-5.859 15.355-.001 21.213 2.833 2.834 4.394 6.6 4.394 10.607s-1.561 7.773-4.394 10.607c-5.857 5.858-5.857 15.356.001 21.213z"/></g></svg>