<?xml version="1.0" encoding="iso-8859-1"?>
<!-- Generator: Adobe Illustrator 19.0.0, SVG Export Plug-In . SVG Version: 6.00 Build 0)  -->
<svg version="1.1" id="Capa_1" xmlns="http://www.w3.org/2000/svg" xmlns:xlink="http://www.w3.org/1999/xlink" x="0px" y="0px"
	 viewBox="0 0 512 512" style="enable-background:new 0 0 512 512;" xml:space="preserve">
<g>
	<g>
		<path d="M512,317.379V194.621l-47.232-7.229c-3.435-10.451-7.665-20.65-12.644-30.486l28.296-38.524l-86.803-86.803
			l-38.524,28.296c-9.836-4.979-20.035-9.208-30.486-12.644L317.379,0H194.621l-7.229,47.232
			c-10.451,3.435-20.65,7.665-30.486,12.644L118.382,31.58l-86.803,86.803l28.296,38.524c-4.979,9.836-9.208,20.035-12.644,30.486
			L0,194.621v122.758l47.232,7.229c3.435,10.451,7.665,20.65,12.644,30.486L31.58,393.618l86.803,86.803l38.524-28.296
			c9.836,4.978,20.035,9.208,30.486,12.644L194.621,512h122.758l7.229-47.232c10.451-3.435,20.65-7.665,30.486-12.644l38.524,28.296
			l86.803-86.803l-28.296-38.524c4.978-9.836,9.208-20.035,12.644-30.486L512,317.379z M441.327,297.847l-2.606,9.325
			c-4.065,14.545-9.9,28.617-17.345,41.824l-4.756,8.438l24.374,33.185l-50.376,50.376l-33.185-24.374l-8.438,4.756
			c-13.207,7.444-27.279,13.28-41.824,17.345l-9.325,2.606L291.621,482h-71.242l-6.226-40.673l-9.325-2.606
			c-14.545-4.065-28.617-9.9-41.824-17.345l-8.438-4.756l-33.185,24.374l-50.376-50.376l24.374-33.185l-4.756-8.438
			c-7.444-13.207-13.28-27.279-17.345-41.824l-2.606-9.325L30,291.621v-71.242l40.673-6.226l2.606-9.325
			c4.065-14.545,9.9-28.617,17.345-41.824l4.756-8.438l-24.374-33.185l50.376-50.376l33.185,24.374l8.438-4.756
			c13.207-7.444,27.279-13.28,41.824-17.345l9.325-2.606L220.379,30h71.242l6.226,40.673l9.325,2.606
			c14.545,4.065,28.617,9.9,41.824,17.345l8.438,4.756l33.185-24.374l50.376,50.376l-24.374,33.185l4.756,8.438
			c7.444,13.207,13.28,27.279,17.345,41.824l2.606,9.325L482,220.379v71.242L441.327,297.847z"/>
	</g>
</g>
<g>
	<g>
		<path d="M256,132.109c-68.314,0-123.891,55.577-123.891,123.891S187.686,379.891,256,379.891S379.891,324.314,379.891,256
			S324.314,132.109,256,132.109z M256,349.891c-51.771,0-93.891-42.119-93.891-93.891c0-51.772,42.119-93.891,93.891-93.891
			s93.891,42.119,93.891,93.891S307.772,349.891,256,349.891z"/>
	</g>
</g>
<g>
</g>
<g>
</g>
<g>
</g>
<g>
</g>
<g>
</g>
<g>
</g>
<g>
</g>
<g>
</g>
<g>
</g>
<g>
</g>
<g>
</g>
<g>
</g>
<g>
</g>
<g>
</g>
<g>
</g>
</svg>
