<?xml version="1.0" encoding="iso-8859-1"?>
<!-- Generator: Adobe Illustrator 19.0.0, SVG Export Plug-In . SVG Version: 6.00 Build 0)  -->
<svg version="1.1" id="Capa_1" xmlns="http://www.w3.org/2000/svg" xmlns:xlink="http://www.w3.org/1999/xlink" x="0px" y="0px"
	 viewBox="0 0 512 512" style="enable-background:new 0 0 512 512;" xml:space="preserve">
<g>
	<g>
		<rect x="17.612" width="37.74" height="512"/>
	</g>
</g>
<g>
	<g>
		<path d="M478.11,86.354L124.622,37.293c-5.416-0.767-10.875,0.874-14.989,4.46c-4.12,3.579-6.479,8.768-6.479,14.228v216.373
			c0,5.453,2.365,10.649,6.479,14.234c3.459,3.007,7.862,4.636,12.391,4.636c0.868,0,1.73-0.063,2.598-0.17l353.488-49.061
			c9.334-1.296,16.278-9.271,16.278-18.694V105.048C494.388,95.626,487.438,87.65,478.11,86.354z M456.649,206.857l-315.754,43.822
			V77.649l315.754,43.828V206.857z"/>
	</g>
</g>
<g>
	<g>
		<rect x="239.017" y="74.85" width="37.74" height="178.634"/>
	</g>
</g>
<g>
	<g>
		<rect x="293.754" y="145.305" transform="matrix(0.0085 -1 1 0.0085 200.6839 530.7479)" width="148.454" height="37.741"/>
	</g>
</g>
<g>
</g>
<g>
</g>
<g>
</g>
<g>
</g>
<g>
</g>
<g>
</g>
<g>
</g>
<g>
</g>
<g>
</g>
<g>
</g>
<g>
</g>
<g>
</g>
<g>
</g>
<g>
</g>
<g>
</g>
</svg>
